<?xml version="1.0" encoding="iso-8859-1"?>
<!-- Generator: Adobe Illustrator 21.0.0, SVG Export Plug-In . SVG Version: 6.00 Build 0)  -->
<svg version="1.1" id="Capa_1" xmlns="http://www.w3.org/2000/svg" xmlns:xlink="http://www.w3.org/1999/xlink" x="0px" y="0px"
	 viewBox="0 0 511.999 511.999" style="enable-background:new 0 0 511.999 511.999;" xml:space="preserve">
<path style="fill:#5D5360;" d="M236.395,42.613L3.067,446.749c-8.713,15.092,2.178,33.957,19.605,33.957h466.656
	c17.427,0,28.318-18.865,19.605-33.957L275.605,42.613C266.892,27.521,245.108,27.521,236.395,42.613z"/>
<path style="fill:#FFE17D;" d="M248.848,103.623L62.131,427.029c-3.179,5.505,0.795,12.387,7.152,12.387h373.435
	c6.357,0,10.33-6.882,7.152-12.387L263.152,103.623C259.973,98.118,252.027,98.118,248.848,103.623z"/>
<g>
	<circle style="fill:#5D5360;" cx="256" cy="369.87" r="16.516"/>
	<path style="fill:#5D5360;" d="M265.408,313.426l13.763-82.581c0.839-5.034-3.043-9.616-8.146-9.616h-30.052
		c-5.103,0-8.985,4.582-8.146,9.616l13.763,82.581c0.664,3.982,4.109,6.9,8.146,6.9h2.525
		C261.299,320.326,264.745,317.407,265.408,313.426z"/>
</g>
<g>
	<path style="fill:#4B3F4E;" d="M37.971,424.892L264.366,32.869c-9.829-3.815-22.006-0.589-27.971,9.743L3.067,446.749
		c-8.713,15.092,2.178,33.957,19.605,33.957h466.657c11.683,0,20.433-8.516,22.303-18.652H59.426
		C40.355,462.054,28.436,441.409,37.971,424.892z"/>
	<path style="fill:#4B3F4E;" d="M256,221.229h-15.026c-5.103,0-8.985,4.582-8.146,9.615l13.763,82.581
		c0.664,3.982,4.109,6.901,8.146,6.901H256V221.229z"/>
	<path style="fill:#4B3F4E;" d="M264.258,378.132c-9.121,0-16.516-7.395-16.516-16.516c0-2.42,0.524-4.727,1.46-6.798
		c-5.735,2.59-9.718,8.355-9.718,15.056c0,9.121,7.395,16.516,16.516,16.516c6.701,0,12.466-3.984,15.056-9.719
		C268.985,377.607,266.678,378.132,264.258,378.132z"/>
</g>
<path style="fill:#FFD164;" d="M446.253,420.763H191.34c-44.499,0-72.311-48.172-50.062-86.71l127.456-220.761l-5.583-9.669
	c-3.178-5.506-11.125-5.506-14.303,0L62.131,427.029c-3.178,5.505,0.794,12.387,7.152,12.387h373.435
	c6.357,0,10.33-6.882,7.152-12.387L446.253,420.763z"/>
<g>
</g>
<g>
</g>
<g>
</g>
<g>
</g>
<g>
</g>
<g>
</g>
<g>
</g>
<g>
</g>
<g>
</g>
<g>
</g>
<g>
</g>
<g>
</g>
<g>
</g>
<g>
</g>
<g>
</g>
</svg>
