<svg enable-background="new 0 0 32 32" height="512" viewBox="0 0 32 32" width="512" xmlns="http://www.w3.org/2000/svg"><g id="BG"><path d="m26 32h-20c-3.314 0-6-2.686-6-6v-20c0-3.314 2.686-6 6-6h20c3.314 0 6 2.686 6 6v20c0 3.314-2.686 6-6 6z" fill="#f5e6fe"/></g><g id="bold" fill="#be63f9"><path d="m15.009 16.118c-.065-.065-.15-.098-.236-.098s-.171.033-.236.098c-.13.13-.13.341 0 .471l1.178 1.178c.13.13.341.13.471 0s.13-.341 0-.471z"/><path d="m22.198 7.999h-5.928c-.474 0-.939.193-1.274.528l-6.468 6.468c-.703.702-.703 1.846 0 2.549l5.928 5.928c.351.352.813.528 1.274.528.462 0 .923-.176 1.275-.527l6.468-6.468c.335-.335.528-.8.528-1.274v-5.929c0-.994-.809-1.803-1.803-1.803zm-6.6 5.644c.324-.326.854-.326 1.178 0 .325.325.325.854 0 1.178-.162.163-.376.243-.589.243s-.427-.081-.589-.243c-.325-.324-.325-.853 0-1.178zm-.236 6.364c-.098.098-.225.146-.354.146s-.256-.049-.354-.146l-2.004-2.004-.118.118c-.195.195-.512.195-.707 0s-.195-.512 0-.707l.471-.471c.195-.195.512-.195.707 0l2.357 2.357c.198.195.198.512.002.707zm1.532-1.533c-.26.26-.602.39-.943.39s-.683-.13-.943-.39l-1.178-1.178c-.52-.52-.52-1.366 0-1.885.52-.52 1.366-.52 1.885 0l1.178 1.178c.521.52.521 1.366.001 1.885zm1.234-1.388c-.019.003-.038.003-.056.003-.251 0-.468-.189-.496-.445l-.471-4.243c-.031-.275.167-.521.441-.552.277-.031.522.167.552.441l.471 4.243c.031.275-.167.522-.441.553zm1.948-1.793c-.162.163-.376.243-.589.243s-.427-.081-.589-.243c-.325-.325-.325-.854 0-1.178.324-.326.854-.326 1.178 0 .325.324.325.853 0 1.178zm.924-3.293c-.552 0-1-.448-1-1s.448-1 1-1 1 .448 1 1-.447 1-1 1z"/></g></svg>