<?xml version="1.0" encoding="iso-8859-1"?>
<!-- Generator: Adobe Illustrator 19.0.0, SVG Export Plug-In . SVG Version: 6.00 Build 0)  -->
<svg version="1.1" id="Capa_1" xmlns="http://www.w3.org/2000/svg" xmlns:xlink="http://www.w3.org/1999/xlink" x="0px" y="0px"
	 viewBox="0 0 512 512" style="enable-background:new 0 0 512 512;" xml:space="preserve">
<circle style="fill:#FFCF35;" cx="256" cy="256" r="256"/>
<path style="fill:#FFB344;" d="M512,256c0-7.27-0.32-14.463-0.914-21.58L394.333,117.667L117.667,394.333L234.42,511.086
	C241.537,511.681,248.73,512,256,512C397.385,512,512,397.385,512,256z"/>
<polygon style="fill:#005C83;" points="394.333,394.334 117.667,394.332 117.667,394.332 117.667,117.668 394.333,117.668 
	394.333,117.668 "/>
<polygon style="fill:#00263F;" points="394.333,117.667 394.333,117.667 256,117.667 256,394.333 394.333,394.333 "/>
<polygon style="fill:#FFFFFF;" points="330.75,220.139 352,220.139 352,197.139 357,197.139 357,181.639 152,181.639 152,197.139 
	160,197.139 160,220.139 181.25,220.139 181.25,197.139 330.75,197.139 "/>
<g>
	<polygon style="fill:#E0E0E0;" points="256,181.639 256,197.139 330.75,197.139 330.75,220.139 352,220.139 352,197.139 
		357,197.139 357,181.639 	"/>
	<polygon style="fill:#E0E0E0;" points="290.165,161.639 284.266,137.639 268.649,137.639 268.649,161.639 	"/>
	<polygon style="fill:#E0E0E0;" points="268.649,217.139 268.649,362.601 343.5,362.601 303.806,217.139 	"/>
</g>
<g>
	<polygon style="fill:#FFFFFF;" points="243.351,161.639 243.351,137.639 227.734,137.639 221.835,161.639 	"/>
	<polygon style="fill:#FFFFFF;" points="208.194,217.139 168.5,362.601 243.351,362.601 243.351,217.139 	"/>
</g>
<g>
</g>
<g>
</g>
<g>
</g>
<g>
</g>
<g>
</g>
<g>
</g>
<g>
</g>
<g>
</g>
<g>
</g>
<g>
</g>
<g>
</g>
<g>
</g>
<g>
</g>
<g>
</g>
<g>
</g>
</svg>
