<?xml version="1.0" encoding="iso-8859-1"?>
<!-- Generator: Adobe Illustrator 19.0.0, SVG Export Plug-In . SVG Version: 6.00 Build 0)  -->
<svg version="1.1" id="Capa_1" xmlns="http://www.w3.org/2000/svg" xmlns:xlink="http://www.w3.org/1999/xlink" x="0px" y="0px"
	 viewBox="0 0 512 512" style="enable-background:new 0 0 512 512;" xml:space="preserve">
<circle style="fill:#FCD748;" cx="256" cy="256" r="256"/>
<path style="fill:#FABF40;" d="M512,256c0-0.003,0-0.006,0-0.009L375.386,119.377L34.232,305.368l206.144,206.144
	C245.546,511.823,250.752,512,256,512C397.385,512,512,397.385,512,256z"/>
<path style="fill:#2FA69A;" d="M48.333,286.282h413.299v-57.43c0-19.931-16.157-36.088-36.088-36.088h-10.611l-22.086-50.43
	c-9.771-22.311-31.82-36.726-56.178-36.726H233v88.605H48.333V286.282z"/>
<path style="fill:#12887A;" d="M461.632,228.852c0-19.931-16.157-36.088-36.088-36.088h-10.611l-22.086-50.43
	c-9.771-22.312-31.82-36.726-56.178-36.726H233v180.674h228.632L461.632,228.852L461.632,228.852z"/>
<path style="fill:#FFFFFF;" d="M362.041,147.575c-5.069-11.574-16.507-19.052-29.143-19.052h-73.623v62.416h121.757L362.041,147.575
	z"/>
<rect x="34.23" y="271.22" style="fill:#12887A;" width="439.49" height="34.15"/>
<rect x="233" y="271.22" style="fill:#0E6859;" width="240.72" height="34.15"/>
<circle style="fill:#595959;" cx="112.6" cy="304.59" r="45.38"/>
<circle style="fill:#969696;" cx="112.6" cy="304.59" r="20.648"/>
<circle style="fill:#303030;" cx="393.43" cy="304.59" r="45.38"/>
<circle style="fill:#595959;" cx="393.43" cy="304.59" r="20.648"/>
<path style="fill:#FFFFFF;" d="M461.632,228.852c0-2.111-0.192-4.176-0.539-6.188h-22.259c-9.018,0-16.328,7.311-16.328,16.329
	s7.31,16.329,16.328,16.329h22.799v-26.47H461.632z"/>
<g>
</g>
<g>
</g>
<g>
</g>
<g>
</g>
<g>
</g>
<g>
</g>
<g>
</g>
<g>
</g>
<g>
</g>
<g>
</g>
<g>
</g>
<g>
</g>
<g>
</g>
<g>
</g>
<g>
</g>
</svg>
